<svg xmlns="http://www.w3.org/2000/svg" width="756" height="536" viewBox="0 0 756 536" version="1.1"><path d="M 309.007 36.620 C 300.305 38.521, 285.779 45.809, 278.937 51.705 C 266.810 62.158, 257.968 75.820, 253.830 90.500 C 252.026 96.897, 251.580 101.004, 251.600 111 C 251.624 122.445, 251.900 124.302, 254.872 133 C 258.771 144.414, 261.444 149.255, 268.977 158.544 L 274.688 165.589 269.290 172.044 C 249.085 196.208, 245.600 228.205, 260.133 256.139 C 269.176 273.521, 284.534 286.331, 303.968 292.703 C 311.755 295.256, 313.765 295.497, 327 295.462 C 340.206 295.428, 342.214 295.177, 349.500 292.650 C 359.685 289.117, 366.768 285.161, 375.230 278.279 L 381.960 272.806 389.591 278.945 C 398.397 286.028, 405.510 289.851, 416.035 293.156 C 422.378 295.148, 425.605 295.500, 437.500 295.500 C 450.130 295.500, 452.335 295.226, 460.032 292.703 C 479.466 286.331, 494.824 273.521, 503.867 256.139 C 518.282 228.431, 514.924 196.630, 495.033 172.489 L 489.256 165.478 494.621 159.038 C 501.354 150.956, 507.241 139.728, 510.137 129.443 C 513.262 118.346, 513.263 101.743, 510.138 90.500 C 504.340 69.635, 489.731 51.940, 470.500 42.487 C 459.702 37.179, 450.098 35, 437.500 35 C 417.701 35, 401.948 41.016, 386.280 54.561 L 382.059 58.210 374.280 51.944 C 364.964 44.442, 353.173 38.593, 343.185 36.519 C 334.219 34.657, 317.765 34.706, 309.007 36.620 M 312.500 49.425 C 294.383 53.612, 279.220 65.690, 270.976 82.500 C 263.938 96.851, 262.389 112.845, 266.649 127.189 C 269.098 135.435, 274.348 145.058, 279.561 150.857 L 284.313 156.142 286.765 153.690 L 289.217 151.238 284.601 145.571 C 275.699 134.642, 271.762 123.734, 271.762 110 C 271.762 94.637, 277.040 81.960, 288 71 C 304.729 54.271, 329.612 50.468, 351.947 61.225 C 357.762 64.026, 362.840 68.695, 397.040 102.690 C 418.237 123.761, 436.055 141, 436.635 141 C 437.215 141, 438.524 140.079, 439.543 138.953 C 441.378 136.925, 441.046 136.555, 404.448 99.896 C 365.036 60.418, 358.347 54.792, 346.206 50.908 C 337.651 48.172, 321.078 47.443, 312.500 49.425 M 421.116 49.978 C 412.214 52.389, 402.941 57.413, 396.362 63.389 L 391.500 67.805 393.886 70.361 L 396.271 72.918 401.309 68.511 C 410.522 60.451, 424.887 55.026, 437 55.032 C 456.601 55.041, 475.905 66.276, 485.354 83.173 C 490.594 92.542, 492.302 100.328, 491.776 112.440 C 491.289 123.646, 489.169 130.856, 483.864 139.348 C 482.058 142.239, 463.407 161.836, 441.367 184 C 414.871 210.645, 401.586 224.710, 400.544 227.218 C 396.509 236.935, 401.350 247.047, 414.203 255.748 C 433.120 268.555, 458.910 263.526, 472.018 244.474 C 482.617 229.069, 480.752 204.717, 468.040 192.538 L 465.013 189.639 462.492 192.007 L 459.972 194.375 462.916 197.438 C 464.536 199.122, 467.130 202.975, 468.681 206 C 471.191 210.897, 471.499 212.542, 471.495 221 C 471.491 229.449, 471.183 231.085, 468.710 235.786 C 463.008 246.627, 454.925 252.767, 443.396 255.013 C 432.753 257.087, 422.065 253.788, 413.324 245.731 C 407.415 240.284, 405.639 236.746, 406.498 232.129 C 407.075 229.023, 412.974 222.665, 447.443 188 C 490.836 144.360, 492.336 142.528, 496.992 127.500 C 499.550 119.246, 500.057 104.557, 498.081 96 C 496.185 87.794, 489.616 75.091, 484.023 68.816 C 477.468 61.461, 467.180 54.560, 457.977 51.346 C 447.556 47.706, 431.680 47.117, 421.116 49.978 M 316.500 69.409 C 304.794 72.310, 294.434 80.698, 288.873 91.778 C 285.626 98.248, 285.500 98.932, 285.500 110.021 C 285.500 120.956, 285.662 121.872, 288.691 128.021 C 290.447 131.584, 293.479 136.046, 295.430 137.935 L 298.977 141.370 301.466 139.032 L 303.956 136.693 300.365 132.719 C 294.261 125.963, 292.501 120.874, 292.506 110 C 292.509 101.550, 292.817 99.916, 295.290 95.214 C 300.992 84.373, 309.075 78.233, 320.604 75.987 C 327.590 74.625, 335.647 75.814, 342.500 79.218 C 344.956 80.438, 361.093 95.736, 384.306 118.852 L 422.113 156.500 424.056 154.139 C 425.125 152.841, 426 151.483, 426 151.122 C 426 150.760, 409.012 133.531, 388.250 112.835 C 362.464 87.130, 349.074 74.490, 346 72.950 C 336.367 68.123, 326.481 66.936, 316.500 69.409 M 427 69.374 C 420.270 71.227, 415.564 73.751, 410.449 78.254 L 405.849 82.303 408.358 84.813 L 410.868 87.323 414.462 84.168 C 432.148 68.639, 458.780 74.372, 468.865 95.880 C 471.064 100.571, 471.500 102.906, 471.500 110 C 471.500 125.019, 472.022 124.327, 425.067 171.496 C 402.618 194.048, 383.938 213.512, 383.557 214.750 C 382.621 217.795, 381.777 217.586, 379.514 213.750 C 378.460 211.963, 369.631 202.404, 359.893 192.509 C 342.234 174.565, 342.184 174.524, 340.095 176.414 C 338.943 177.457, 338 178.736, 338 179.256 C 338 179.776, 345.849 188.286, 355.442 198.166 C 375.692 219.022, 377.450 221.804, 377.450 233 C 377.451 243.257, 373.479 251.808, 364.736 260.374 C 338.493 286.085, 294.062 278.683, 277.412 245.826 C 272.012 235.169, 270.379 218.643, 273.531 206.542 C 276.971 193.333, 278.732 191.178, 319.877 149.779 C 357.877 111.545, 358.339 111.032, 356.526 109.029 C 355.516 107.913, 354.179 107, 353.554 107 C 352.930 107, 335.083 124.438, 313.896 145.750 C 272.035 187.857, 270.537 189.727, 266.417 205 C 264.097 213.602, 264.097 228.398, 266.417 237 C 273.663 263.865, 298.630 282.965, 326.500 282.965 C 347.062 282.965, 367.444 272.210, 378.086 255.746 L 381.805 249.992 384.338 254.314 C 387.897 260.387, 399.419 270.943, 407.296 275.349 C 430.965 288.585, 461.928 284.228, 481 264.976 C 491.552 254.324, 497.002 243.317, 499.064 228.494 C 501.400 211.700, 495.567 192.878, 483.930 179.658 L 479.697 174.849 477.216 177.329 L 474.735 179.810 479.350 185.475 C 488.850 197.137, 492.584 208.923, 491.763 224.656 C 491.141 236.571, 488.928 242.942, 481.965 252.856 C 462.992 279.872, 424.464 283.654, 399.669 260.934 C 390.845 252.848, 386.785 244.996, 386.199 234.882 C 385.405 221.167, 385.054 221.631, 431.864 174.527 C 469.458 136.696, 472.857 132.994, 475.492 127 C 482.499 111.060, 478.790 91.712, 466.497 80.086 C 455.620 69.798, 440.426 65.678, 427 69.374 M 317.500 90.515 C 304.114 97.704, 301.178 113.043, 310.900 125 L 312.932 127.500 328.584 111.879 L 344.235 96.257 339.367 92.895 C 335.169 89.995, 333.538 89.489, 327.500 89.218 C 322.481 88.993, 319.651 89.360, 317.500 90.515 M 428.500 90.455 C 426.850 91.213, 424.249 92.883, 422.719 94.166 L 419.938 96.500 435.412 111.931 L 450.886 127.362 452.999 124.931 C 460.670 116.105, 460.839 104.255, 453.410 96.032 C 451.509 93.927, 448.433 91.484, 446.575 90.603 C 442.440 88.640, 432.628 88.560, 428.500 90.455 M 329.362 159.250 C 284.163 204.624, 285.500 202.742, 285.500 221 C 285.500 231.591, 285.723 232.954, 288.322 238.248 C 297.402 256.746, 317.783 266.629, 336.543 261.633 C 344.402 259.540, 348.796 257.084, 355.071 251.274 C 364.104 242.911, 366.184 234.181, 361.395 224.733 C 359.528 221.050, 329.179 190, 327.446 190 C 326.821 190, 325.484 190.913, 324.474 192.029 C 322.664 194.029, 322.855 194.276, 338.197 209.779 C 357.268 229.048, 359.322 232.608, 355.565 239.875 C 353.715 243.452, 347.148 249.374, 342.270 251.862 C 325.281 260.529, 303.696 253.310, 295.276 236.143 C 292.844 231.184, 292.508 229.348, 292.504 221 C 292.498 205.952, 292.022 206.595, 335.054 163.495 C 355.374 143.142, 372 126, 372 125.400 C 372 124.375, 368.858 121, 367.904 121 C 367.662 121, 350.319 138.213, 329.362 159.250 M 366.737 149.762 C 358.632 157.881, 352 164.974, 352 165.525 C 352 166.075, 358.675 173.188, 366.832 181.333 L 381.665 196.140 396.832 181.466 C 405.175 173.394, 412 166.244, 412 165.575 C 412 164.528, 382.885 135, 381.852 135 C 381.645 135, 374.843 141.643, 366.737 149.762 M 309.692 207.750 C 306.207 212.815, 304.996 216.333, 305.022 221.315 C 305.051 226.920, 307.869 232.799, 312.454 236.826 C 317.257 241.043, 319.856 242, 326.500 242 C 332.779 242, 335.836 240.990, 340.636 237.328 L 344.136 234.659 328.830 219.330 C 320.412 210.898, 313.242 204, 312.898 204 C 312.554 204, 311.111 205.688, 309.692 207.750 M 435.170 219.330 L 419.864 234.659 423.364 237.328 C 428.164 240.990, 431.221 242, 437.500 242 C 444.144 242, 446.743 241.043, 451.546 236.826 C 458.297 230.898, 460.590 222.196, 457.604 213.836 C 456.389 210.436, 452.159 204.182, 450.988 204.055 C 450.706 204.025, 443.588 210.898, 435.170 219.330 M 412.261 336.557 C 403.508 340.919, 398.024 348.799, 398.006 357.038 C 398.003 358.434, 399.012 361.584, 400.250 364.038 C 402.035 367.579, 403.654 369.077, 408.088 371.296 C 412.893 373.700, 415.447 374.207, 426.308 374.912 C 440.548 375.835, 443.148 376.887, 444.990 382.471 C 449.341 395.655, 425.223 403.917, 410.500 394.286 C 408.300 392.847, 405.912 390.844, 405.193 389.835 C 403.332 387.221, 401.838 387.540, 398.158 391.337 L 394.923 394.674 399.536 398.927 C 409.644 408.244, 423.978 411.339, 437.664 407.159 C 449.965 403.403, 456 396.109, 456 385 C 456 370.805, 449.268 366.088, 426.749 364.509 C 421.937 364.172, 416.640 363.422, 414.978 362.843 C 409.041 360.773, 408.316 354.809, 413.335 349.331 C 416.246 346.155, 417.386 345.633, 422.291 345.226 C 430.788 344.521, 436.405 345.735, 441.968 349.478 L 446.960 352.838 449.988 349.015 L 453.016 345.192 449.888 342.559 C 439.836 334.101, 422.681 331.365, 412.261 336.557 M 583.500 335.345 C 572.415 339.019, 563.543 346.474, 559.181 355.780 C 556.863 360.726, 556.500 362.785, 556.500 371 C 556.500 379.553, 556.808 381.148, 559.595 387 C 563.527 395.261, 569.739 401.473, 578 405.405 C 583.923 408.225, 585.388 408.500, 594.500 408.500 C 603.756 408.500, 604.995 408.258, 611.155 405.244 C 635.407 393.380, 640.013 361.700, 620.101 343.710 C 613.311 337.576, 605.805 334.638, 596.081 334.309 C 590.853 334.133, 585.937 334.537, 583.500 335.345 M 58.907 340.889 L 63 345.778 63 376.389 L 63 407 68 407 L 73 407 73 383 C 73 369.800, 73.338 359.026, 73.750 359.058 C 74.162 359.090, 83.425 369.890, 94.332 383.058 L 114.165 407 119.582 407 L 125 407 125 371.500 L 125 336 119.516 336 L 114.032 336 113.766 362.886 L 113.500 389.772 91 362.900 L 68.500 336.028 61.657 336.014 L 54.814 336 58.907 340.889 M 148 371.500 L 148 407 175.500 407 L 203 407 203 402 L 203 397 181 397 L 159 397 159 387.619 L 159 378.237 163.443 377.119 C 165.886 376.503, 172.411 376, 177.943 376 L 188 376 188 371 L 188 366 176.065 366 C 169.501 366, 162.976 366.439, 161.565 366.975 L 159 367.950 159 356.975 L 159 346 179 346 L 199 346 199 341 L 199 336 173.500 336 L 148 336 148 371.500 M 222 336.611 C 222 336.947, 227.126 344.311, 233.391 352.976 L 244.781 368.730 230.445 387.615 L 216.110 406.500 221.693 406.804 C 224.764 406.971, 227.857 406.885, 228.567 406.613 C 229.277 406.340, 234.627 399.791, 240.456 392.059 C 246.284 384.326, 251.242 378, 251.472 378 C 251.702 378, 256.508 384.350, 262.151 392.110 C 267.793 399.871, 272.931 406.420, 273.567 406.664 C 274.203 406.908, 277.233 406.971, 280.299 406.804 L 285.873 406.500 271.958 387.577 C 263.442 375.997, 258.362 368.236, 258.866 367.577 C 262.399 362.960, 278.052 341.844, 279.865 339.250 L 282.136 336 275.746 336 L 269.357 336 261.012 347.044 C 256.422 353.118, 252.311 358.308, 251.875 358.578 C 251.439 358.847, 247.183 353.877, 242.419 347.534 L 233.755 336 227.878 336 C 224.645 336, 222 336.275, 222 336.611 M 296 341 L 296 346 308.500 346 L 321 346 321 376.500 L 321 407 325.985 407 L 330.971 407 331.235 376.750 L 331.500 346.500 344.250 346.220 L 357 345.940 357 340.970 L 357 336 326.500 336 L 296 336 296 341 M 474 371.500 L 474 407 479.500 407 L 485 407 485 391.061 L 485 375.123 489.374 374.467 C 491.779 374.106, 498.820 374.347, 505.021 375.002 C 511.222 375.657, 518.704 375.893, 521.647 375.525 L 527 374.856 527 390.928 L 527 407 532 407 L 537 407 537 371.500 L 537 336 532 336 L 527 336 527 349.921 L 527 363.841 523.750 364.561 C 521.962 364.958, 517.125 365.121, 513 364.925 C 508.875 364.728, 500.887 364.552, 495.249 364.534 L 484.998 364.500 484.999 350.250 L 485 336 479.500 336 L 474 336 474 371.500 M 651 371.500 L 651 407 656.500 407 L 662 407 662 393.535 C 662 380.598, 662.088 380.023, 664.250 378.856 C 665.551 378.153, 672.686 377.398, 681.172 377.065 C 695.429 376.504, 695.967 376.403, 700.172 373.481 C 713.110 364.490, 711.601 344.398, 697.500 337.890 C 694.014 336.281, 690.769 336.041, 672.250 336.022 L 651 336 651 371.500 M 583.748 346.378 C 561.347 354.663, 560.075 385.061, 581.686 395.635 C 600.407 404.794, 622.007 391.584, 621.968 371 C 621.949 360.514, 616.676 351.996, 607.403 347.467 C 602.390 345.019, 589.081 344.406, 583.748 346.378 M 662 357.485 C 662 368.277, 662.140 369.153, 663.750 368.456 C 664.712 368.040, 671.606 367.371, 679.069 366.971 C 687.651 366.510, 693.450 365.738, 694.845 364.871 C 697.518 363.210, 699.238 357.439, 698.364 353.068 C 697.251 347.503, 694.602 346.633, 677.357 346.169 L 662 345.757 662 357.485 M 147.718 428.054 C 132.920 431.685, 124.834 445.700, 129.176 460.193 C 130.714 465.328, 137.374 472.810, 142.461 475.122 C 150.586 478.812, 164.359 476.904, 170.236 471.274 C 172.845 468.774, 173 468.133, 173 459.813 L 173 451 164.974 451 L 156.949 451 158.500 454 C 159.706 456.332, 160.726 457, 163.080 457 C 166.070 457, 166.106 457.062, 165.805 461.750 C 165.515 466.267, 165.280 466.613, 161 468.800 C 149.425 474.717, 134.972 465.602, 135.016 452.412 C 135.063 438.382, 150.080 430.415, 163.264 437.425 C 167.803 439.839, 167.834 439.841, 169.621 437.867 C 171.978 435.262, 170.700 433.218, 164.894 430.307 C 159.633 427.669, 152.892 426.785, 147.718 428.054 M 200.951 428.362 C 192.349 430.682, 186.070 436.280, 183.056 444.315 C 181.408 448.709, 181.825 458.017, 183.871 462.522 C 188.100 471.832, 196.431 476.943, 207.434 476.978 C 216.026 477.005, 221.391 474.635, 226.898 468.378 C 238.583 455.104, 231.972 433.633, 214.612 428.477 C 208.757 426.739, 207.024 426.724, 200.951 428.362 M 260.718 428.092 C 252.529 430.020, 245.217 436.248, 242.361 443.726 C 240.402 448.855, 240.897 458.967, 243.339 463.689 C 245.635 468.129, 250.815 473.011, 255.478 475.129 C 261.233 477.743, 272.047 477.640, 277.673 474.916 C 283.062 472.308, 289.280 465.346, 290.824 460.193 C 294.811 446.887, 286.974 432.445, 273.612 428.477 C 268.099 426.840, 266.264 426.785, 260.718 428.092 M 390.718 428.054 C 385.219 429.403, 381.833 431.377, 377.676 435.657 C 368.268 445.343, 368.807 460.987, 378.882 470.684 C 387.393 478.874, 404.988 479.176, 413.236 471.274 C 415.845 468.774, 416 468.133, 416 459.813 L 416 451 407.974 451 L 399.949 451 401.500 454 C 402.706 456.332, 403.726 457, 406.080 457 C 409.070 457, 409.106 457.062, 408.805 461.750 C 408.515 466.267, 408.280 466.613, 404 468.800 C 392.535 474.661, 378 465.617, 378 452.622 C 378 446.802, 380.861 440.949, 385.227 437.834 C 387.973 435.876, 389.735 435.500, 396.166 435.500 C 402.655 435.500, 404.323 435.863, 407.027 437.862 L 410.221 440.223 412.249 438.195 C 415.004 435.441, 414.004 433.542, 408.266 430.635 C 402.552 427.739, 395.956 426.769, 390.718 428.054 M 444.897 427.934 C 439.073 429.071, 432.480 433.559, 429.070 438.708 C 425.130 444.656, 424.672 446.506, 425.176 454.420 C 425.702 462.684, 429.569 469.221, 436.448 473.474 C 440.557 476.014, 442.576 476.556, 449.018 476.849 C 455.393 477.139, 457.437 476.824, 461.096 474.989 C 471.036 470.003, 475.425 463.136, 475.470 452.500 C 475.495 446.633, 475.055 444.743, 472.751 440.824 C 469.179 434.747, 463.721 430.307, 457.568 428.471 C 452.303 426.900, 450.566 426.827, 444.897 427.934 M 502.951 428.362 C 494.349 430.682, 488.070 436.280, 485.056 444.315 C 483.408 448.709, 483.825 458.017, 485.871 462.522 C 490.100 471.832, 498.431 476.943, 509.434 476.978 C 518.009 477.005, 523.390 474.636, 528.856 468.426 C 540.605 455.079, 534.038 433.652, 516.612 428.477 C 510.757 426.739, 509.024 426.724, 502.951 428.362 M 610.037 428.145 C 602.408 430.398, 598 435.739, 598 442.728 C 598 450.530, 603.125 453.794, 617.209 454.964 C 621.999 455.362, 626.612 456.263, 627.459 456.966 C 628.307 457.669, 629 459.747, 629 461.583 C 629 465.672, 626.112 468.624, 620.680 470.086 C 614.301 471.804, 609.741 470.524, 601.764 464.778 C 600.310 463.731, 599.670 463.885, 597.827 465.729 C 595.742 467.814, 595.716 468.028, 597.335 469.818 C 598.275 470.856, 601.315 472.942, 604.091 474.453 C 608.651 476.935, 609.926 477.166, 617.319 476.850 C 624.505 476.543, 626.013 476.135, 629.713 473.500 C 636.036 468.998, 638.033 462.323, 635.144 455.349 C 633.392 451.119, 628.149 448.911, 617.791 448.043 C 613.001 447.641, 608.388 446.737, 607.541 446.034 C 605.213 444.102, 605.657 439.671, 608.442 437.054 C 610.581 435.045, 611.675 434.810, 617.235 435.164 C 621.824 435.456, 624.495 436.216, 626.865 437.904 L 630.144 440.239 631.822 437.869 C 632.745 436.566, 633.500 435.104, 633.500 434.620 C 633.500 434.135, 631.250 432.489, 628.500 430.961 C 622.824 427.808, 615.142 426.636, 610.037 428.145 M 300.315 432.250 C 301.143 434.285, 302.452 435.619, 303.818 435.820 C 305.977 436.136, 306 436.350, 306 456.070 L 306 476 317.532 476 C 330.848 476, 334.006 475.035, 338.891 469.472 C 343.502 464.220, 345.243 459.567, 345.243 452.500 C 345.243 442.629, 340.762 435, 332.661 431.078 C 328.912 429.263, 326.508 429, 313.681 429 L 298.994 429 300.315 432.250 M 543.315 432.250 C 544.143 434.285, 545.452 435.619, 546.818 435.820 C 548.977 436.136, 549 436.348, 549 456.149 L 549 476.159 561.911 475.829 C 574.571 475.506, 574.896 475.441, 578.661 472.457 C 590.621 462.975, 591.334 442.977, 580.031 434.025 C 574.308 429.491, 571.999 429, 556.432 429 L 541.994 429 543.315 432.250 M 198.502 436.575 C 191.697 440.124, 188.786 445.170, 188.849 453.310 C 188.923 462.907, 197.047 470.286, 207.539 470.286 C 227.027 470.286, 233.035 443.973, 215.282 436.377 C 210.982 434.537, 202.213 434.641, 198.502 436.575 M 259 435.722 C 251.882 438.396, 247.590 445.651, 248.193 453.987 C 248.910 463.901, 256.086 470.286, 266.514 470.286 C 285.863 470.286, 291.956 445.374, 274.800 436.411 C 272.166 435.035, 262.007 434.592, 259 435.722 M 441.502 436.575 C 434.697 440.124, 431.786 445.170, 431.849 453.310 C 431.939 464.929, 443.863 473.012, 455.719 469.491 C 468.125 465.807, 472.940 450.696, 464.698 441.309 C 462.956 439.325, 460.076 437.094, 458.298 436.351 C 453.950 434.535, 445.192 434.652, 441.502 436.575 M 500.502 436.575 C 493.628 440.160, 491 444.767, 491 453.236 C 491 463.045, 498.873 470.286, 509.539 470.286 C 529.027 470.286, 535.035 443.973, 517.282 436.377 C 512.982 434.537, 504.213 434.641, 500.502 436.575 M 313 453.147 L 313 470.293 320.629 469.649 C 325.612 469.227, 329.390 468.304, 331.523 466.986 C 340.688 461.321, 340.442 444.484, 331.102 438.263 C 328.343 436.426, 326.322 436, 320.352 436 L 313 436 313 453.147 M 555.226 452.737 C 555.540 471.923, 554.771 470.686, 565.665 469.519 C 575.652 468.450, 581.231 462.492, 581.231 452.896 C 581.231 446.858, 578.456 441.163, 574.102 438.263 C 571.292 436.391, 569.342 436, 562.828 436 L 554.952 436 555.226 452.737" stroke="none" fill="#375e7e" fill-rule="evenodd"/></svg>