<?xml version="1.0" standalone="no"?>
<!DOCTYPE svg PUBLIC "-//W3C//DTD SVG 20010904//EN"
 "http://www.w3.org/TR/2001/REC-SVG-20010904/DTD/svg10.dtd">
<svg version="1.0" xmlns="http://www.w3.org/2000/svg"
 width="442.000000pt" height="398.000000pt" viewBox="0 0 442.000000 398.000000"
 preserveAspectRatio="xMidYMid meet">

<g transform="translate(0.000000,398.000000) scale(0.100000,-0.100000)"
fill="#375e7e" stroke="none">
<path d="M1440 3466 c-177 -34 -307 -94 -437 -200 -103 -84 -168 -162 -222
-265 -84 -163 -117 -318 -108 -515 8 -191 66 -341 203 -523 41 -53 74 -98 74
-100 0 -2 -29 -40 -65 -86 -137 -173 -201 -349 -211 -582 -7 -146 5 -224 52
-341 88 -224 279 -430 488 -524 152 -69 355 -95 526 -66 182 30 309 87 451
202 92 75 80 76 197 -17 197 -158 506 -233 752 -181 353 73 605 304 716 657
27 84 29 101 29 255 -1 177 -9 225 -62 345 -35 81 -74 144 -151 244 -35 45
-61 89 -58 97 3 7 36 55 75 106 123 164 171 289 192 493 17 173 2 295 -54 430
-120 290 -417 524 -727 574 -266 43 -531 -36 -751 -224 -29 -25 -58 -45 -63
-45 -6 0 -56 32 -111 71 -186 133 -362 198 -555 204 -70 3 -141 -1 -180 -9z
m323 -162 c91 -21 190 -61 248 -101 82 -57 229 -196 618 -586 l384 -385 -22
-36 c-13 -20 -25 -36 -27 -36 -26 0 -118 88 -479 453 -424 429 -468 468 -610
540 -113 57 -138 62 -280 61 -113 0 -141 -4 -211 -27 -173 -57 -311 -183 -402
-366 l-47 -94 -3 -133 c-6 -208 35 -338 149 -474 l60 -70 -28 -35 c-16 -19
-31 -35 -34 -35 -15 0 -104 97 -139 151 -201 311 -132 765 153 1007 76 65 219
138 318 162 96 24 256 25 352 4z m1383 -4 c153 -39 246 -91 362 -204 86 -82
132 -149 173 -247 85 -207 74 -425 -31 -644 -42 -88 -63 -117 -168 -230 -66
-72 -285 -293 -486 -493 -201 -200 -373 -376 -381 -392 -27 -53 -30 -105 -6
-143 51 -83 171 -157 289 -179 121 -22 278 28 367 117 94 93 136 257 104 404
-9 43 -70 154 -110 199 -14 17 5 58 35 74 16 9 24 5 48 -23 52 -61 106 -149
124 -202 22 -65 22 -222 1 -293 -46 -155 -137 -267 -273 -334 -80 -40 -93 -43
-186 -48 -175 -8 -286 32 -411 148 -86 80 -110 127 -108 210 3 102 10 110 506
605 254 253 475 480 492 505 63 94 122 227 134 302 46 295 -96 589 -342 710
-117 57 -185 72 -329 72 -116 -1 -131 -3 -212 -33 -83 -31 -201 -104 -242
-150 -11 -11 -23 -21 -29 -21 -18 0 -67 42 -67 58 0 23 86 102 150 138 73 41
182 84 250 100 90 20 255 17 346 -6z m-34 -249 c104 -36 162 -72 230 -143 160
-168 191 -376 87 -588 -41 -83 -51 -94 -508 -555 -256 -258 -470 -471 -476
-473 -15 -4 -85 -126 -97 -168 -5 -21 -8 -79 -6 -129 6 -122 28 -166 143 -281
74 -75 105 -98 175 -132 446 -216 942 74 967 564 10 177 -36 316 -154 472
l-56 73 34 29 c19 16 37 29 40 30 14 1 132 -159 159 -215 68 -143 75 -175 75
-360 0 -159 -2 -175 -27 -243 -42 -116 -102 -208 -202 -308 -74 -74 -107 -99
-176 -133 -135 -65 -228 -85 -385 -78 -140 5 -204 21 -320 79 -123 62 -275
195 -313 275 -9 18 -18 33 -21 33 -3 0 -22 -23 -41 -51 -19 -28 -72 -87 -118
-130 -66 -62 -104 -89 -185 -129 -136 -67 -205 -83 -347 -83 -186 -1 -315 43
-453 152 -134 106 -232 239 -282 382 -56 157 -32 424 53 594 47 94 116 171
562 619 l447 449 31 -23 c18 -13 32 -33 32 -44 0 -13 -151 -172 -443 -466
-244 -245 -458 -463 -475 -486 -47 -61 -100 -174 -118 -251 -19 -81 -14 -235
11 -334 58 -225 217 -387 455 -460 62 -20 97 -24 205 -24 118 1 136 3 199 28
155 61 303 182 357 292 59 121 63 264 8 369 -12 23 -117 137 -235 255 -118
118 -214 220 -214 226 0 14 45 65 57 65 14 0 419 -413 453 -463 19 -26 37 -46
42 -45 4 2 22 26 40 55 20 30 204 218 457 465 435 424 511 505 550 584 100
199 47 436 -121 545 -81 52 -154 73 -253 73 -94 0 -168 -27 -265 -95 l-61 -43
-25 26 c-25 25 -25 26 -10 57 31 59 167 137 281 161 56 12 174 3 237 -19z
m-1397 4 c151 -39 146 -35 652 -538 l467 -464 -23 -36 c-12 -21 -29 -37 -36
-37 -19 0 -69 49 -481 470 -364 373 -417 421 -515 471 -118 59 -238 60 -367 3
-66 -29 -168 -129 -202 -200 -22 -44 -25 -62 -25 -169 0 -109 2 -125 26 -175
15 -30 40 -72 58 -94 39 -49 41 -87 4 -111 l-27 -18 -41 45 c-55 61 -100 148
-119 231 -18 77 -9 218 19 296 86 246 358 391 610 326z m-34 -255 c35 -11 80
-34 98 -50 l35 -30 -29 -32 c-78 -88 -341 -348 -351 -348 -18 0 -64 51 -87 95
-28 55 -27 175 1 232 36 69 106 126 177 144 52 12 91 10 156 -11z m1368 4
c107 -31 186 -141 184 -256 -1 -60 -40 -163 -74 -194 -17 -15 -20 -15 -51 4
-18 12 -107 96 -198 187 l-165 166 30 25 c38 31 101 65 140 75 48 11 78 10
134 -7z m-916 -408 c23 -18 27 -28 22 -49 -5 -17 -162 -180 -444 -458 -240
-238 -448 -450 -464 -473 -81 -120 -87 -306 -16 -449 69 -136 255 -225 420
-200 118 19 265 107 295 179 42 99 8 155 -229 385 l-171 165 23 37 c12 20 28
37 35 37 14 0 186 -169 186 -182 0 -5 8 -12 18 -16 26 -10 206 -202 228 -243
14 -25 19 -56 19 -114 0 -75 -3 -85 -35 -138 -41 -69 -123 -136 -217 -179 -58
-26 -83 -32 -168 -36 -170 -8 -277 29 -393 133 -113 103 -166 223 -165 375 1
103 14 163 55 250 28 59 75 109 496 533 257 257 469 467 472 467 3 -1 18 -11
33 -24z m340 -342 l179 -182 -16 -28 c-8 -16 -89 -103 -179 -192 l-164 -164
-29 15 c-16 9 -105 92 -199 186 l-169 170 29 33 c102 114 342 348 355 346 8
-2 95 -85 193 -184z m-844 -849 l186 -184 -35 -36 c-122 -126 -335 -95 -427
63 -24 41 -28 58 -28 127 0 60 5 89 19 115 28 52 69 100 85 100 8 0 98 -83
200 -185z m1531 159 c50 -43 73 -98 73 -179 1 -115 -56 -204 -163 -254 -102
-47 -216 -25 -295 58 l-29 32 184 184 c102 102 188 185 192 185 3 0 21 -12 38
-26z"/>
</g>
</svg>
